<svg xmlns="http://www.w3.org/2000/svg" width="110" height="100" fill="none"><g clip-path="url(#a)"><path fill="#8FDCF1" d="M78.39 59.969c16.233 0 29.391-13.159 29.391-29.39 0-16.233-13.158-29.392-29.39-29.392S49 14.348 49 30.578c0 16.232 13.159 29.39 29.39 29.39Z"/><path fill="#6F99A3" d="M32.922 92.031c7.689 0 13.922-6.233 13.922-13.922 0-7.688-6.233-13.921-13.922-13.921C25.233 64.188 19 70.42 19 78.108c0 7.69 6.233 13.922 13.922 13.922Z"/><path stroke="#1C1D20" stroke-miterlimit="10" stroke-width="2" d="m77.516 71.344 6.187-3.094c.721-.359 1.547-1.547 1.547-3.094V63.61M94.531 63.61v1.546c0 1.547.826 2.735 1.547 3.094l8.955 4.478a6.14 6.14 0 0 1 2.495 2.282c.63 1.013.925 2.14.925 3.251v3.91l-1.117.558a38.485 38.485 0 0 1-8.41 3.049c-2.976.703-6.104 1.034-9.035 1.034"/><path stroke="#1C1D20" stroke-miterlimit="10" stroke-width="2" d="M84.422 47.313a7.703 7.703 0 0 1 5.469-2.266c1.978 0 3.96.755 5.468 2.266a7.706 7.706 0 0 1 2.266 5.468l-.003 3.094c0 4.14-2.576 9.281-7.731 9.281-5.154 0-7.732-5.142-7.732-9.281l-.003-3.094c0-1.978.755-3.958 2.266-5.468ZM52.766 57.422v6.187c0 1.547-.774 2.707-1.547 3.094l-9.282 4.64c-6.818 3.41-12.374 6.188-12.374 13.923v13.921M91.438 99.188V85.266c0-7.735-5.557-10.513-12.376-13.922l-9.28-4.64c-.774-.388-1.548-1.548-1.548-3.095v-6.187"/><path stroke="#1C1D20" stroke-linejoin="round" stroke-miterlimit="10" stroke-width="2" d="M69.781 66.703a9.282 9.282 0 0 1-18.562 0"/><path stroke="#1C1D20" stroke-miterlimit="10" stroke-width="2" d="M43 99.188v-4M79 99.188v-4"/><path stroke="#1C1D20" stroke-linejoin="round" stroke-miterlimit="10" stroke-width="2" d="M74.422 41.953a4.624 4.624 0 0 0-1.36-3.28 4.624 4.624 0 0 0-3.28-1.36h-1.548a3.081 3.081 0 0 1-2.187-.907 3.081 3.081 0 0 1-.906-2.187l-3.094 3.093H51.219a4.624 4.624 0 0 0-3.281 1.36 4.624 4.624 0 0 0-1.36 3.281"/><path stroke="#1C1D20" stroke-linejoin="round" stroke-miterlimit="10" stroke-width="2" d="M46.578 37.313c0-3.563 1.36-7.125 4.078-9.843 2.72-2.72 6.28-4.08 9.844-4.08 3.564 0 7.125 1.36 9.844 4.08a13.877 13.877 0 0 1 4.078 9.843v7.734c0 .396-.152.792-.453 1.094a1.542 1.542 0 0 1-1.094.453c0 6.365-4.126 13.922-12.375 13.922-8.251 0-12.375-7.557-12.375-13.922-.396 0-.792-.152-1.094-.453a1.542 1.542 0 0 1-.453-1.094v-7.734Z"/><path stroke="#1C1D20" stroke-miterlimit="10" stroke-width="2" d="M82.156 28.484h3.094M88.344 28.484h3.093M94.531 28.484h3.094M71 23.788v-5.6h37v19.6h-4.133v1.308"/><path stroke="#1C1D20" stroke-linejoin="round" stroke-miterlimit="10" stroke-width="2" d="M79.063 37.313h18.562l6.187 6.187v-4.64"/><path stroke="#1C1D20" stroke-miterlimit="10" stroke-width="2" d="M16 27.188h31M16 34.188h22M13.6 50.188V48.52H9V15.187h46v5"/><path stroke="#1C1D20" stroke-linejoin="round" stroke-miterlimit="10" stroke-width="2" d="M13.5 49.188v6l6.5-7h22"/></g><defs><clipPath id="a"><path fill="#fff" d="M0 .188h110v99H0z"/></clipPath></defs></svg>