<svg xmlns="http://www.w3.org/2000/svg" width="112" height="95" fill="none"><path fill="#6F99A3" d="M49.502 34.797c9.35 0 16.93-7.58 16.93-16.929 0-9.35-7.58-16.929-16.93-16.929S32.573 8.52 32.573 17.87c0 9.349 7.58 16.928 16.93 16.928Z"/><path fill="#44C4E8" d="M42.25 75.139c5.017 0 9.084-3.882 9.084-8.67 0-4.79-4.067-8.672-9.084-8.672-5.017 0-9.084 3.882-9.084 8.671s4.068 8.671 9.084 8.671Z"/><g clip-path="url(#a)"><path stroke="#000" stroke-linecap="round" stroke-miterlimit="10" stroke-width="4.322" d="M73.744 34.176a4.335 4.335 0 0 1-6.112 0l-3.588-3.589a4.334 4.334 0 0 1 0-6.113l8.123-8.127a.137.137 0 0 0 .039-.121.135.135 0 0 0-.08-.1c-5.243-2.248-12.041-1.102-16.358 3.183-4.13 4.1-4.365 10.265-2.852 15.646a4.314 4.314 0 0 1-1.224 4.334L29.19 59.838a6.507 6.507 0 1 0 9.184 9.184l20.782-22.556a4.313 4.313 0 0 1 4.268-1.233c5.34 1.43 11.418 1.162 15.494-2.862 4.389-4.322 5.336-11.962 3.208-16.334a.135.135 0 0 0-.216-.035l-8.166 8.173Z"/></g><defs><clipPath id="a"><path fill="#fff" d="M24.516 11h61v64h-61z"/></clipPath></defs></svg>