<svg xmlns="http://www.w3.org/2000/svg" width="69" height="61" fill="none"><g clip-path="url(#a)"><path fill="#6F99A3" d="M11.157 27.657a7.829 7.829 0 1 0 0-15.657 7.829 7.829 0 0 0 0 15.657Z"/><path fill="#44C4E8" d="M43.343 51c8.942 0 16.191-7.25 16.191-16.191 0-8.942-7.249-16.191-16.191-16.191s-16.191 7.249-16.191 16.19C27.152 43.752 34.4 51 43.343 51Z"/></g><path fill="#000" d="M20.5 42c-3.75 0-6.938-1.313-9.563-3.938C8.313 35.438 7 32.25 7 28.5c0-3.75 1.313-6.938 3.938-9.563C13.562 16.313 16.75 15 20.5 15H43c3.75 0 6.938 1.313 9.563 3.938C55.187 21.563 56.5 24.75 56.5 28.5c0 3.75-1.313 6.938-3.938 9.563C49.938 40.687 46.75 42 43 42H20.5Zm0-4.5H43c2.475 0 4.594-.881 6.356-2.644C51.12 33.094 52 30.975 52 28.5s-.881-4.594-2.644-6.356C47.594 20.38 45.475 19.5 43 19.5H20.5c-2.475 0-4.594.881-6.356 2.644C12.38 23.906 11.5 26.025 11.5 28.5s.881 4.594 2.644 6.356C15.906 36.62 18.025 37.5 20.5 37.5ZM43 35.25c1.875 0 3.469-.656 4.781-1.969 1.313-1.312 1.969-2.906 1.969-4.781 0-1.875-.656-3.469-1.969-4.781C46.47 22.406 44.875 21.75 43 21.75c-1.875 0-3.469.656-4.781 1.969-1.313 1.312-1.969 2.906-1.969 4.781 0 1.875.656 3.469 1.969 4.781C39.53 34.594 41.125 35.25 43 35.25Z"/><defs><clipPath id="a"><path fill="#fff" d="M3.328 12h62v45h-62z"/></clipPath></defs></svg>