<svg xmlns="http://www.w3.org/2000/svg" width="119" height="87" fill="none"><g clip-path="url(#a)"><path fill="#6F99A3" d="M46.617 18.384a9.315 9.315 0 1 0 0-18.63 9.315 9.315 0 0 0 0 18.63Z"/><path fill="#44C4E8" fill-opacity=".6" d="M88.795 66.85c9.926 0 17.973-8.047 17.973-17.973 0-9.926-8.047-17.973-17.973-17.973-9.926 0-17.972 8.047-17.972 17.973 0 9.926 8.046 17.972 17.972 17.972Z"/></g><path fill="#000" fill-opacity=".7" d="M73.729 18.18a1.934 1.934 0 0 1-2.74 0 5.7 5.7 0 0 0-4.051-1.677 5.7 5.7 0 0 0-4.052 1.676 1.937 1.937 0 1 1-2.74-2.74 9.583 9.583 0 0 1 6.792-2.81 9.582 9.582 0 0 1 6.79 2.81 1.937 1.937 0 0 1 0 2.74Zm-22.497-1.851a19.437 19.437 0 0 0-4.59 3.726l-.002.002a19.406 19.406 0 0 0-3.26 4.956 19.188 19.188 0 0 0-1.618 5.866 1.938 1.938 0 0 0 3.852.427c.179-1.62.615-3.202 1.292-4.685a15.511 15.511 0 0 1 6.281-6.946 1.938 1.938 0 0 0-1.955-3.346ZM80.5 37.969a1.938 1.938 0 0 1 3.875 0 6.77 6.77 0 0 1-6.506 6.754c.432.89.694 1.877.694 2.933a1.938 1.938 0 1 1-3.875 0 2.91 2.91 0 0 0-2.907-2.906H59.804a1.938 1.938 0 1 1 0-3.875h4.227a2.912 2.912 0 0 0 2.907-2.906 1.938 1.938 0 0 1 3.875 0 6.71 6.71 0 0 1-.678 2.906h7.459a2.912 2.912 0 0 0 2.906-2.906Z"/><path fill="#000" fill-opacity=".7" d="M96 36.44c0-1.217-.087-2.395-.22-3.538C94.021 17.755 81.173 6.004 65.56 6h-2.387C47.059 6.002 34.002 19.059 34 35.173a11.514 11.514 0 0 0 11.515 11.514h2.404a12.582 12.582 0 0 0 12.237 9.688H73.92l6.037 6.037a1.453 1.453 0 0 0 2.48-1.027v-5.17a15.477 15.477 0 0 0 12.912-10.91c.277-.927.436-1.904.537-2.897l.005-.016c.055-.178.109-.355.109-.548 0-.118-.008-.237-.016-.353l-.013-.223c0-.062.008-.122.013-.18.008-.072.016-.141.016-.213V36.44Zm-4.363 7.758A11.624 11.624 0 0 1 80.5 52.5H60.156a8.715 8.715 0 0 1-8.678-7.924l-.011-.124a9.637 9.637 0 0 1 9.658-9.39 1.937 1.937 0 1 0 0-3.874 13.495 13.495 0 0 0-6.51 1.664 7.783 7.783 0 0 0-1.573-2.302 1.937 1.937 0 1 0-2.74 2.74c.55.552.924 1.26 1.066 2.052a13.527 13.527 0 0 0-3.65 7.47h-2.203a7.617 7.617 0 0 1-5.404-2.237 7.61 7.61 0 0 1-2.236-5.402c0-6.993 2.829-13.305 7.409-17.889a25.209 25.209 0 0 1 17.889-7.409h2.387c12.962-.004 23.727 9.3 26.061 21.582a14.493 14.493 0 0 0-7.808-3.94 12.533 12.533 0 0 0 1.53-6.017 1.938 1.938 0 0 0-3.874 0 8.682 8.682 0 0 1-2.554 6.165 8.681 8.681 0 0 1-6.165 2.554 1.937 1.937 0 1 0 0 3.875 12.536 12.536 0 0 0 8.167-3.019l.03.01c.168.06.344.095.522.102 2.949 0 5.601 1.19 7.535 3.122a10.61 10.61 0 0 1 3.092 6.96 11.634 11.634 0 0 1-.46 2.929Z"/><defs><clipPath id="a"><path fill="#fff" d="M0 0h119v87H0z"/></clipPath></defs></svg>