<svg xmlns="http://www.w3.org/2000/svg" width="47" height="47" fill="none"><path fill="#fff" d="M23.447 15.986c-4.232 0-7.685 3.454-7.685 7.686 0 4.232 3.453 7.685 7.685 7.685 4.232 0 7.685-3.453 7.685-7.685 0-4.232-3.453-7.686-7.685-7.686Zm23.05 7.686c0-3.183.03-6.337-.15-9.513-.178-3.69-1.02-6.965-3.718-9.664-2.704-2.704-5.973-3.54-9.663-3.718-3.183-.18-6.337-.15-9.513-.15-3.183 0-6.337-.03-9.513.15-3.69.178-6.965 1.02-9.663 3.718C1.573 7.2.737 10.47.557 14.16.38 17.34.409 20.495.409 23.672c0 3.177-.029 6.336.15 9.513.179 3.69 1.02 6.965 3.719 9.663 2.704 2.704 5.973 3.54 9.663 3.72 3.182.178 6.336.149 9.513.149 3.182 0 6.336.029 9.513-.15 3.69-.179 6.965-1.02 9.663-3.719 2.704-2.704 3.54-5.973 3.718-9.663.185-3.177.15-6.33.15-9.513Zm-23.05 11.825a11.808 11.808 0 0 1-11.825-11.825 11.808 11.808 0 0 1 11.825-11.825 11.809 11.809 0 0 1 11.825 11.825 11.808 11.808 0 0 1-11.825 11.825Zm12.31-21.373a2.758 2.758 0 0 1-2.762-2.762 2.758 2.758 0 0 1 2.761-2.761 2.758 2.758 0 0 1 2.762 2.761 2.76 2.76 0 0 1-2.762 2.762Z"/></svg>