<svg xmlns="http://www.w3.org/2000/svg" width="50" height="50" fill="none"><path fill="#fff" d="M10.051.75C4.747.75.406 5.09.406 10.395v29.93c0 5.304 4.341 9.644 9.645 9.644h29.93c5.305 0 9.644-4.34 9.644-9.644v-29.93c0-5.304-4.34-9.645-9.644-9.645h-29.93Zm2.426 8.122c2.543 0 4.11 1.67 4.158 3.864 0 2.146-1.615 3.863-4.207 3.863h-.048c-2.495 0-4.107-1.716-4.107-3.863 0-2.194 1.661-3.864 4.204-3.864ZM34.393 19.13c4.891 0 8.557 3.197 8.557 10.067V42.02h-7.433V30.056c0-3.007-1.075-5.058-3.765-5.058-2.054 0-3.278 1.382-3.815 2.718-.196.478-.245 1.145-.245 1.814v12.49H20.26s.098-20.268 0-22.366h7.435v3.167c.988-1.524 2.754-3.692 6.699-3.692Zm-25.682.526h7.433V42.02H8.711V19.655Z"/></svg>