<svg xmlns="http://www.w3.org/2000/svg" width="20" height="26" fill="none"><path fill="#fff" d="M9.86 12.842c.675 0 1.253-.24 1.733-.722.481-.48.721-1.057.72-1.731 0-.675-.24-1.253-.72-1.733a2.357 2.357 0 0 0-1.733-.72c-.674 0-1.252.24-1.733.72-.48.482-.72 1.059-.72 1.733 0 .674.24 1.252.722 1.733.48.48 1.058.72 1.731.72Zm0 12.265c-3.29-2.8-5.749-5.402-7.373-7.803C.862 14.902.049 12.679.048 10.634c0-3.066.987-5.51 2.96-7.328C4.98 1.486 7.265.576 9.86.576c2.597 0 4.881.91 6.854 2.73 1.973 1.819 2.96 4.262 2.958 7.328 0 2.044-.812 4.267-2.438 6.67-1.625 2.402-4.083 5.003-7.374 7.803Z"/></svg>