<svg xmlns="http://www.w3.org/2000/svg" width="47" height="47" fill="none"><path fill="#fff" d="M41.379 0H5.528A5.12 5.12 0 0 0 .406 5.122v35.85a5.12 5.12 0 0 0 5.122 5.122h35.85a5.12 5.12 0 0 0 5.122-5.122V5.122A5.12 5.12 0 0 0 41.379 0Zm-4.994 16.68v.88c0 8.34-6.366 17.999-18 17.999-3.51 0-6.804-1.099-9.656-2.853h1.536c2.853 0 5.708-1.099 7.903-2.635-2.853 0-5.048-1.974-5.926-4.39.438 0 .878.221 1.099.221.658 0 1.098 0 1.756-.22-2.852-.658-5.047-3.073-5.047-6.146.878.438 1.757.658 2.853.878-1.757-1.536-2.853-3.293-2.853-5.487 0-1.099.22-2.195.878-3.073 3.073 3.73 7.683 6.366 12.95 6.584 0-.438-.22-.879-.22-1.537a6.37 6.37 0 0 1 6.366-6.366c1.757 0 3.51.658 4.61 1.974 1.536-.22 2.852-.878 3.95-1.536-.437 1.536-1.536 2.635-2.852 3.51 1.316-.22 2.415-.437 3.731-1.098-.883 1.322-1.98 2.418-3.078 3.296Z"/></svg>